<svg xmlns="http://www.w3.org/2000/svg" width="213.07" height="31.49" viewBox="0 0 213.07 31.49"><title>ServiceNow logo - Brandlogos.net</title><path d="M457.37,506a9.26,9.26,0,0,0-5.94,2.14v-1.92H446V527.3h5.64v-13.5a6.71,6.71,0,0,1,5.12-2.61,5.75,5.75,0,0,1,2.26.34V506.1a9.63,9.63,0,0,0-1.65-.14" transform="translate(-405.46 -496.26)"/><path d="M408.2,520.85a8.84,8.84,0,0,0,5.76,2.09c1.52,0,2.69-.74,2.69-1.78,0-3.18-10.19-2-10.19-8.84,0-4,3.9-6.58,8.07-6.58a13,13,0,0,1,7.11,2.14L419,512a7.08,7.08,0,0,0-4-1.44c-1.56,0-2.86.61-2.86,1.7,0,2.74,10.2,1.65,10.2,9,0,4.05-4,6.53-8.37,6.53a14.52,14.52,0,0,1-8.46-2.82Z" transform="translate(-405.46 -496.26)"/><path d="M443.6,516.54c0-5.88-4.12-10.8-9.94-10.8-6.25,0-10.24,5.14-10.24,11a10.54,10.54,0,0,0,10.08,11q.47,0,.94,0a11.39,11.39,0,0,0,8.63-3.79l-3.21-3.22a7.43,7.43,0,0,1-5.29,2.44,5.53,5.53,0,0,1-5.69-5h14.58A9.44,9.44,0,0,0,443.6,516.54ZM429.15,514a4.57,4.57,0,0,1,4.51-3.7,4.2,4.2,0,0,1,4.17,3.7Z" transform="translate(-405.46 -496.26)"/><polygon points="67 22.81 72.77 9.92 78.63 9.92 68.96 31.04 65.05 31.04 55.38 9.92 61.23 9.92 67 22.81"/><path d="M488.83,496.26a3.62,3.62,0,1,1-.07,0h.07" transform="translate(-405.46 -496.26)"/><rect x="80.55" y="9.92" width="5.64" height="21.12"/><path d="M515,523a11.14,11.14,0,0,1-9.55,4.75,11,11,0,0,1-.56-22h.6a11.21,11.21,0,0,1,8.85,4.22l-4,3.53a6.09,6.09,0,0,0-4.86-2.53,5.65,5.65,0,0,0-5.68,5.63q0,.08,0,.16a5.57,5.57,0,0,0,5.39,5.75h.43a6.16,6.16,0,0,0,5-2.79Z" transform="translate(-405.46 -496.26)"/><path d="M535.46,523.94a11.39,11.39,0,0,1-8.63,3.79,10.54,10.54,0,0,1-11-10q0-.47,0-.94c0-5.88,4-11,10.24-11,5.81,0,9.93,4.92,9.93,10.8a9.28,9.28,0,0,1-.13,1.61H521.27a5.53,5.53,0,0,0,5.68,5,7.44,7.44,0,0,0,5.29-2.44ZM530.21,514a4.2,4.2,0,0,0-4.16-3.7,4.57,4.57,0,0,0-4.51,3.7Z" transform="translate(-405.46 -496.26)"/><path d="M538.22,527.3V506.18h5.42v1.7a9.26,9.26,0,0,1,5.94-2.13,9.46,9.46,0,0,1,7.29,3.4,10.67,10.67,0,0,1,2.17,7.41V527.3H553.4V516.1a5.12,5.12,0,0,0-1.26-4A4.43,4.43,0,0,0,549,511a6.71,6.71,0,0,0-5.12,2.61V527.3Z" transform="translate(-405.46 -496.26)"/><path d="M573.57,505.74a12.35,12.35,0,0,0-8.51,21.33,2.44,2.44,0,0,0,3.17.16,8.82,8.82,0,0,1,10.53,0,2.45,2.45,0,0,0,3.19-.19,12.35,12.35,0,0,0-8.38-21.31m-.07,18.51a6,6,0,0,1-6.15-5.82q0-.16,0-.32a6.15,6.15,0,1,1,12.3,0,6,6,0,0,1-5.83,6.15h-.32" transform="translate(-405.46 -496.26)" style="fill:#62d84e"/><polygon points="191.49 31.04 187.29 31.04 178.91 9.92 184.54 9.92 189.13 21.99 193.64 9.92 198.34 9.92 202.81 21.99 207.44 9.92 213.07 9.92 204.69 31.04 200.49 31.04 195.99 19.01 191.49 31.04"/></svg>